solid ascii
  facet normal -1.000000e+000 0.000000e+000 0.000000e+000
    outer loop
      vertex   -1.078128e+002 0.000000e+000 0.000000e+000
      vertex   -1.078128e+002 -5.080000e+000 0.000000e+000
      vertex   -1.078128e+002 0.000000e+000 1.270000e+001
    endloop
  endfacet
  facet normal -1.000000e+000 -0.000000e+000 0.000000e+000
    outer loop
      vertex   -1.078128e+002 0.000000e+000 1.270000e+001
      vertex   -1.078128e+002 -5.080000e+000 0.000000e+000
      vertex   -1.078128e+002 -5.080000e+000 1.270000e+001
    endloop
  endfacet
  facet normal 0.000000e+000 1.000000e+000 -0.000000e+000
    outer loop
      vertex   0.000000e+000 0.000000e+000 0.000000e+000
      vertex   -5.390642e+001 0.000000e+000 0.000000e+000
      vertex   0.000000e+000 0.000000e+000 1.270000e+001
    endloop
  endfacet
  facet normal 0.000000e+000 1.000000e+000 -0.000000e+000
    outer loop
      vertex   0.000000e+000 0.000000e+000 1.270000e+001
      vertex   -5.390642e+001 0.000000e+000 0.000000e+000
      vertex   -5.390642e+001 0.000000e+000 1.270000e+001
    endloop
  endfacet
  facet normal 0.000000e+000 1.000000e+000 0.000000e+000
    outer loop
      vertex   -5.390642e+001 0.000000e+000 1.270000e+001
      vertex   -5.390642e+001 0.000000e+000 0.000000e+000
      vertex   -1.078128e+002 0.000000e+000 0.000000e+000
    endloop
  endfacet
  facet normal -0.000000e+000 1.000000e+000 0.000000e+000
    outer loop
      vertex   -1.078128e+002 0.000000e+000 1.270000e+001
      vertex   -5.390642e+001 0.000000e+000 1.270000e+001
      vertex   -1.078128e+002 0.000000e+000 0.000000e+000
    endloop
  endfacet
  facet normal -1.000000e+000 0.000000e+000 0.000000e+000
    outer loop
      vertex   0.000000e+000 2.921000e+001 0.000000e+000
      vertex   0.000000e+000 0.000000e+000 0.000000e+000
      vertex   0.000000e+000 2.921000e+001 1.270000e+001
    endloop
  endfacet
  facet normal -1.000000e+000 -0.000000e+000 0.000000e+000
    outer loop
      vertex   0.000000e+000 2.921000e+001 1.270000e+001
      vertex   0.000000e+000 0.000000e+000 0.000000e+000
      vertex   0.000000e+000 0.000000e+000 1.270000e+001
    endloop
  endfacet
  facet normal 0.000000e+000 -1.000000e+000 0.000000e+000
    outer loop
      vertex   -8.241284e+001 2.921000e+001 0.000000e+000
      vertex   -4.120642e+001 2.921000e+001 0.000000e+000
      vertex   -8.241284e+001 2.921000e+001 1.270000e+001
    endloop
  endfacet
  facet normal 0.000000e+000 -1.000000e+000 0.000000e+000
    outer loop
      vertex   -8.241284e+001 2.921000e+001 1.270000e+001
      vertex   -4.120642e+001 2.921000e+001 0.000000e+000
      vertex   -4.120642e+001 2.921000e+001 1.270000e+001
    endloop
  endfacet
  facet normal 0.000000e+000 -1.000000e+000 0.000000e+000
    outer loop
      vertex   -4.120642e+001 2.921000e+001 1.270000e+001
      vertex   -4.120642e+001 2.921000e+001 0.000000e+000
      vertex   0.000000e+000 2.921000e+001 0.000000e+000
    endloop
  endfacet
  facet normal -0.000000e+000 -1.000000e+000 -0.000000e+000
    outer loop
      vertex   0.000000e+000 2.921000e+001 1.270000e+001
      vertex   -4.120642e+001 2.921000e+001 1.270000e+001
      vertex   0.000000e+000 2.921000e+001 0.000000e+000
    endloop
  endfacet
  facet normal -1.000000e+000 0.000000e+000 0.000000e+000
    outer loop
      vertex   -8.241284e+001 3.429000e+001 0.000000e+000
      vertex   -8.241284e+001 2.921000e+001 0.000000e+000
      vertex   -8.241284e+001 3.429000e+001 1.270000e+001
    endloop
  endfacet
  facet normal -1.000000e+000 -0.000000e+000 0.000000e+000
    outer loop
      vertex   -8.241284e+001 3.429000e+001 1.270000e+001
      vertex   -8.241284e+001 2.921000e+001 0.000000e+000
      vertex   -8.241284e+001 2.921000e+001 1.270000e+001
    endloop
  endfacet
  facet normal 0.000000e+000 1.000000e+000 -0.000000e+000
    outer loop
      vertex   1.918716e+001 3.429000e+001 0.000000e+000
      vertex   -3.161284e+001 3.429000e+001 0.000000e+000
      vertex   1.918716e+001 3.429000e+001 1.270000e+001
    endloop
  endfacet
  facet normal 0.000000e+000 1.000000e+000 -0.000000e+000
    outer loop
      vertex   1.918716e+001 3.429000e+001 1.270000e+001
      vertex   -3.161284e+001 3.429000e+001 0.000000e+000
      vertex   -3.161284e+001 3.429000e+001 1.270000e+001
    endloop
  endfacet
  facet normal 0.000000e+000 1.000000e+000 0.000000e+000
    outer loop
      vertex   -3.161284e+001 3.429000e+001 1.270000e+001
      vertex   -3.161284e+001 3.429000e+001 0.000000e+000
      vertex   -8.241284e+001 3.429000e+001 0.000000e+000
    endloop
  endfacet
  facet normal -0.000000e+000 1.000000e+000 0.000000e+000
    outer loop
      vertex   -8.241284e+001 3.429000e+001 1.270000e+001
      vertex   -3.161284e+001 3.429000e+001 1.270000e+001
      vertex   -8.241284e+001 3.429000e+001 0.000000e+000
    endloop
  endfacet
  facet normal 1.000000e+000 -9.023911e-017 0.000000e+000
    outer loop
      vertex   1.918716e+001 -5.080000e+000 0.000000e+000
      vertex   1.918716e+001 3.429000e+001 0.000000e+000
      vertex   1.918716e+001 -5.080000e+000 1.270000e+001
    endloop
  endfacet
  facet normal 1.000000e+000 -9.023911e-017 0.000000e+000
    outer loop
      vertex   1.918716e+001 -5.080000e+000 1.270000e+001
      vertex   1.918716e+001 3.429000e+001 0.000000e+000
      vertex   1.918716e+001 3.429000e+001 1.270000e+001
    endloop
  endfacet
  facet normal 0.000000e+000 -1.000000e+000 0.000000e+000
    outer loop
      vertex   -1.078128e+002 -5.080000e+000 0.000000e+000
      vertex   -6.547951e+001 -5.080000e+000 0.000000e+000
      vertex   -1.078128e+002 -5.080000e+000 1.270000e+001
    endloop
  endfacet
  facet normal 0.000000e+000 -1.000000e+000 0.000000e+000
    outer loop
      vertex   -1.078128e+002 -5.080000e+000 1.270000e+001
      vertex   -6.547951e+001 -5.080000e+000 0.000000e+000
      vertex   -6.547951e+001 -5.080000e+000 1.270000e+001
    endloop
  endfacet
  facet normal 0.000000e+000 -1.000000e+000 0.000000e+000
    outer loop
      vertex   -6.547951e+001 -5.080000e+000 1.270000e+001
      vertex   -6.547951e+001 -5.080000e+000 0.000000e+000
      vertex   -2.314617e+001 -5.080000e+000 0.000000e+000
    endloop
  endfacet
  facet normal 0.000000e+000 -1.000000e+000 0.000000e+000
    outer loop
      vertex   -2.314617e+001 -5.080000e+000 1.270000e+001
      vertex   -2.314617e+001 -5.080000e+000 0.000000e+000
      vertex   1.918716e+001 -5.080000e+000 0.000000e+000
    endloop
  endfacet
  facet normal -0.000000e+000 -1.000000e+000 -0.000000e+000
    outer loop
      vertex   1.918716e+001 -5.080000e+000 1.270000e+001
      vertex   -2.314617e+001 -5.080000e+000 1.270000e+001
      vertex   1.918716e+001 -5.080000e+000 0.000000e+000
    endloop
  endfacet
  facet normal 0.000000e+000 -1.000000e+000 0.000000e+000
    outer loop
      vertex   -6.547951e+001 -5.080000e+000 1.270000e+001
      vertex   -2.314617e+001 -5.080000e+000 0.000000e+000
      vertex   -2.314617e+001 -5.080000e+000 1.270000e+001
    endloop
  endfacet
  facet normal 0.000000e+000 -0.000000e+000 1.000000e+000
    outer loop
      vertex   -1.078128e+002 -5.080000e+000 1.270000e+001
      vertex   -6.547951e+001 -5.080000e+000 1.270000e+001
      vertex   -1.078128e+002 0.000000e+000 1.270000e+001
    endloop
  endfacet
  facet normal -0.000000e+000 0.000000e+000 1.000000e+000
    outer loop
      vertex   -1.078128e+002 0.000000e+000 1.270000e+001
      vertex   -6.547951e+001 -5.080000e+000 1.270000e+001
      vertex   -5.390642e+001 0.000000e+000 1.270000e+001
    endloop
  endfacet
  facet normal -0.000000e+000 0.000000e+000 1.000000e+000
    outer loop
      vertex   -5.390642e+001 0.000000e+000 1.270000e+001
      vertex   -6.547951e+001 -5.080000e+000 1.270000e+001
      vertex   -2.314617e+001 -5.080000e+000 1.270000e+001
    endloop
  endfacet
  facet normal -0.000000e+000 0.000000e+000 1.000000e+000
    outer loop
      vertex   0.000000e+000 0.000000e+000 1.270000e+001
      vertex   -2.314617e+001 -5.080000e+000 1.270000e+001
      vertex   1.918716e+001 -5.080000e+000 1.270000e+001
    endloop
  endfacet
  facet normal -0.000000e+000 0.000000e+000 1.000000e+000
    outer loop
      vertex   0.000000e+000 2.921000e+001 1.270000e+001
      vertex   1.918716e+001 -5.080000e+000 1.270000e+001
      vertex   1.918716e+001 3.429000e+001 1.270000e+001
    endloop
  endfacet
  facet normal -0.000000e+000 0.000000e+000 1.000000e+000
    outer loop
      vertex   -3.161284e+001 3.429000e+001 1.270000e+001
      vertex   0.000000e+000 2.921000e+001 1.270000e+001
      vertex   1.918716e+001 3.429000e+001 1.270000e+001
    endloop
  endfacet
  facet normal -0.000000e+000 0.000000e+000 1.000000e+000
    outer loop
      vertex   -3.161284e+001 3.429000e+001 1.270000e+001
      vertex   -4.120642e+001 2.921000e+001 1.270000e+001
      vertex   0.000000e+000 2.921000e+001 1.270000e+001
    endloop
  endfacet
  facet normal 0.000000e+000 0.000000e+000 1.000000e+000
    outer loop
      vertex   -3.161284e+001 3.429000e+001 1.270000e+001
      vertex   -8.241284e+001 3.429000e+001 1.270000e+001
      vertex   -4.120642e+001 2.921000e+001 1.270000e+001
    endloop
  endfacet
  facet normal 0.000000e+000 0.000000e+000 1.000000e+000
    outer loop
      vertex   -4.120642e+001 2.921000e+001 1.270000e+001
      vertex   -8.241284e+001 3.429000e+001 1.270000e+001
      vertex   -8.241284e+001 2.921000e+001 1.270000e+001
    endloop
  endfacet
  facet normal -0.000000e+000 0.000000e+000 1.000000e+000
    outer loop
      vertex   -5.390642e+001 0.000000e+000 1.270000e+001
      vertex   -2.314617e+001 -5.080000e+000 1.270000e+001
      vertex   0.000000e+000 0.000000e+000 1.270000e+001
    endloop
  endfacet
  facet normal -0.000000e+000 -0.000000e+000 1.000000e+000
    outer loop
      vertex   0.000000e+000 0.000000e+000 1.270000e+001
      vertex   1.918716e+001 -5.080000e+000 1.270000e+001
      vertex   0.000000e+000 2.921000e+001 1.270000e+001
    endloop
  endfacet
  facet normal 0.000000e+000 0.000000e+000 -1.000000e+000
    outer loop
      vertex   -2.314617e+001 -5.080000e+000 0.000000e+000
      vertex   0.000000e+000 0.000000e+000 0.000000e+000
      vertex   1.918716e+001 -5.080000e+000 0.000000e+000
    endloop
  endfacet
  facet normal 0.000000e+000 0.000000e+000 -1.000000e+000
    outer loop
      vertex   -2.314617e+001 -5.080000e+000 0.000000e+000
      vertex   -5.390642e+001 0.000000e+000 0.000000e+000
      vertex   0.000000e+000 0.000000e+000 0.000000e+000
    endloop
  endfacet
  facet normal 0.000000e+000 0.000000e+000 -1.000000e+000
    outer loop
      vertex   -2.314617e+001 -5.080000e+000 0.000000e+000
      vertex   -6.547951e+001 -5.080000e+000 0.000000e+000
      vertex   -5.390642e+001 0.000000e+000 0.000000e+000
    endloop
  endfacet
  facet normal -0.000000e+000 0.000000e+000 -1.000000e+000
    outer loop
      vertex   -5.390642e+001 0.000000e+000 0.000000e+000
      vertex   -6.547951e+001 -5.080000e+000 0.000000e+000
      vertex   -1.078128e+002 0.000000e+000 0.000000e+000
    endloop
  endfacet
  facet normal -0.000000e+000 -0.000000e+000 -1.000000e+000
    outer loop
      vertex   -1.078128e+002 0.000000e+000 0.000000e+000
      vertex   -6.547951e+001 -5.080000e+000 0.000000e+000
      vertex   -1.078128e+002 -5.080000e+000 0.000000e+000
    endloop
  endfacet
  facet normal 0.000000e+000 0.000000e+000 -1.000000e+000
    outer loop
      vertex   0.000000e+000 0.000000e+000 0.000000e+000
      vertex   0.000000e+000 2.921000e+001 0.000000e+000
      vertex   1.918716e+001 -5.080000e+000 0.000000e+000
    endloop
  endfacet
  facet normal 0.000000e+000 0.000000e+000 -1.000000e+000
    outer loop
      vertex   1.918716e+001 -5.080000e+000 0.000000e+000
      vertex   0.000000e+000 2.921000e+001 0.000000e+000
      vertex   1.918716e+001 3.429000e+001 0.000000e+000
    endloop
  endfacet
  facet normal -0.000000e+000 0.000000e+000 -1.000000e+000
    outer loop
      vertex   1.918716e+001 3.429000e+001 0.000000e+000
      vertex   0.000000e+000 2.921000e+001 0.000000e+000
      vertex   -3.161284e+001 3.429000e+001 0.000000e+000
    endloop
  endfacet
  facet normal -0.000000e+000 -0.000000e+000 -1.000000e+000
    outer loop
      vertex   -3.161284e+001 3.429000e+001 0.000000e+000
      vertex   0.000000e+000 2.921000e+001 0.000000e+000
      vertex   -4.120642e+001 2.921000e+001 0.000000e+000
    endloop
  endfacet
  facet normal -0.000000e+000 -0.000000e+000 -1.000000e+000
    outer loop
      vertex   -8.241284e+001 3.429000e+001 0.000000e+000
      vertex   -4.120642e+001 2.921000e+001 0.000000e+000
      vertex   -8.241284e+001 2.921000e+001 0.000000e+000
    endloop
  endfacet
  facet normal 0.000000e+000 -0.000000e+000 -1.000000e+000
    outer loop
      vertex   -8.241284e+001 3.429000e+001 0.000000e+000
      vertex   -3.161284e+001 3.429000e+001 0.000000e+000
      vertex   -4.120642e+001 2.921000e+001 0.000000e+000
    endloop
  endfacet
endsolid
