solid ascii
  facet normal -0.000000e+000 7.071068e-001 7.071068e-001
    outer loop
      vertex   -2.540000e+001 -1.270000e+000 1.524000e+001
      vertex   0.000000e+000 -1.270000e+000 1.524000e+001
      vertex   -2.540000e+001 0.000000e+000 1.397000e+001
    endloop
  endfacet
  facet normal 0.000000e+000 7.071068e-001 7.071068e-001
    outer loop
      vertex   -2.540000e+001 0.000000e+000 1.397000e+001
      vertex   0.000000e+000 -1.270000e+000 1.524000e+001
      vertex   0.000000e+000 0.000000e+000 1.397000e+001
    endloop
  endfacet
  facet normal 0.000000e+000 0.000000e+000 1.000000e+000
    outer loop
      vertex   0.000000e+000 -1.270000e+000 1.524000e+001
      vertex   -2.540000e+001 -1.270000e+000 1.524000e+001
      vertex   0.000000e+000 -5.080000e+000 1.524000e+001
    endloop
  endfacet
  facet normal 0.000000e+000 0.000000e+000 1.000000e+000
    outer loop
      vertex   0.000000e+000 -5.080000e+000 1.524000e+001
      vertex   -2.540000e+001 -1.270000e+000 1.524000e+001
      vertex   -2.540000e+001 -5.080000e+000 1.524000e+001
    endloop
  endfacet
  facet normal -1.000000e+000 -0.000000e+000 -0.000000e+000
    outer loop
      vertex   -2.540000e+001 -1.270000e+000 1.524000e+001
      vertex   -2.540000e+001 0.000000e+000 1.397000e+001
      vertex   -2.540000e+001 -5.080000e+000 1.524000e+001
    endloop
  endfacet
  facet normal -1.000000e+000 0.000000e+000 0.000000e+000
    outer loop
      vertex   -2.540000e+001 -5.080000e+000 1.524000e+001
      vertex   -2.540000e+001 0.000000e+000 1.397000e+001
      vertex   -2.540000e+001 0.000000e+000 1.066800e+001
    endloop
  endfacet
  facet normal -1.000000e+000 0.000000e+000 0.000000e+000
    outer loop
      vertex   -2.540000e+001 -5.080000e+000 0.000000e+000
      vertex   -2.540000e+001 0.000000e+000 1.066800e+001
      vertex   -2.540000e+001 1.270000e+001 1.066800e+001
    endloop
  endfacet
  facet normal -1.000000e+000 0.000000e+000 0.000000e+000
    outer loop
      vertex   -2.540000e+001 1.778000e+001 0.000000e+000
      vertex   -2.540000e+001 1.270000e+001 1.066800e+001
      vertex   -2.540000e+001 1.778000e+001 1.524000e+001
    endloop
  endfacet
  facet normal -1.000000e+000 0.000000e+000 0.000000e+000
    outer loop
      vertex   -2.540000e+001 1.778000e+001 0.000000e+000
      vertex   -2.540000e+001 -5.080000e+000 0.000000e+000
      vertex   -2.540000e+001 1.270000e+001 1.066800e+001
    endloop
  endfacet
  facet normal -1.000000e+000 0.000000e+000 -0.000000e+000
    outer loop
      vertex   -2.540000e+001 -5.080000e+000 1.524000e+001
      vertex   -2.540000e+001 0.000000e+000 1.066800e+001
      vertex   -2.540000e+001 -5.080000e+000 0.000000e+000
    endloop
  endfacet
  facet normal -1.000000e+000 0.000000e+000 0.000000e+000
    outer loop
      vertex   -2.540000e+001 1.270000e+001 1.066800e+001
      vertex   -2.540000e+001 1.270000e+001 1.397000e+001
      vertex   -2.540000e+001 1.778000e+001 1.524000e+001
    endloop
  endfacet
  facet normal -1.000000e+000 -0.000000e+000 0.000000e+000
    outer loop
      vertex   -2.540000e+001 1.778000e+001 1.524000e+001
      vertex   -2.540000e+001 1.270000e+001 1.397000e+001
      vertex   -2.540000e+001 1.397000e+001 1.524000e+001
    endloop
  endfacet
  facet normal 0.000000e+000 -7.071068e-001 7.071068e-001
    outer loop
      vertex   0.000000e+000 1.397000e+001 1.524000e+001
      vertex   -2.540000e+001 1.397000e+001 1.524000e+001
      vertex   0.000000e+000 1.270000e+001 1.397000e+001
    endloop
  endfacet
  facet normal 0.000000e+000 -7.071068e-001 7.071068e-001
    outer loop
      vertex   0.000000e+000 1.270000e+001 1.397000e+001
      vertex   -2.540000e+001 1.397000e+001 1.524000e+001
      vertex   -2.540000e+001 1.270000e+001 1.397000e+001
    endloop
  endfacet
  facet normal 0.000000e+000 -0.000000e+000 1.000000e+000
    outer loop
      vertex   -2.540000e+001 1.397000e+001 1.524000e+001
      vertex   0.000000e+000 1.397000e+001 1.524000e+001
      vertex   -2.540000e+001 1.778000e+001 1.524000e+001
    endloop
  endfacet
  facet normal -0.000000e+000 0.000000e+000 1.000000e+000
    outer loop
      vertex   -2.540000e+001 1.778000e+001 1.524000e+001
      vertex   0.000000e+000 1.397000e+001 1.524000e+001
      vertex   0.000000e+000 1.778000e+001 1.524000e+001
    endloop
  endfacet
  facet normal -0.000000e+000 -1.000000e+000 -0.000000e+000
    outer loop
      vertex   0.000000e+000 1.270000e+001 1.397000e+001
      vertex   -2.540000e+001 1.270000e+001 1.397000e+001
      vertex   0.000000e+000 1.270000e+001 1.066800e+001
    endloop
  endfacet
  facet normal -0.000000e+000 -1.000000e+000 -0.000000e+000
    outer loop
      vertex   0.000000e+000 1.270000e+001 1.066800e+001
      vertex   -2.540000e+001 1.270000e+001 1.397000e+001
      vertex   -2.540000e+001 1.270000e+001 1.066800e+001
    endloop
  endfacet
  facet normal 0.000000e+000 1.000000e+000 -0.000000e+000
    outer loop
      vertex   0.000000e+000 1.778000e+001 0.000000e+000
      vertex   -2.540000e+001 1.778000e+001 0.000000e+000
      vertex   0.000000e+000 1.778000e+001 1.524000e+001
    endloop
  endfacet
  facet normal 0.000000e+000 1.000000e+000 -0.000000e+000
    outer loop
      vertex   0.000000e+000 1.778000e+001 1.524000e+001
      vertex   -2.540000e+001 1.778000e+001 0.000000e+000
      vertex   -2.540000e+001 1.778000e+001 1.524000e+001
    endloop
  endfacet
  facet normal -0.000000e+000 1.000000e+000 0.000000e+000
    outer loop
      vertex   -2.540000e+001 0.000000e+000 1.397000e+001
      vertex   0.000000e+000 0.000000e+000 1.397000e+001
      vertex   -2.540000e+001 0.000000e+000 1.066800e+001
    endloop
  endfacet
  facet normal -0.000000e+000 1.000000e+000 0.000000e+000
    outer loop
      vertex   -2.540000e+001 0.000000e+000 1.066800e+001
      vertex   0.000000e+000 0.000000e+000 1.397000e+001
      vertex   0.000000e+000 0.000000e+000 1.066800e+001
    endloop
  endfacet
  facet normal 0.000000e+000 -1.000000e+000 0.000000e+000
    outer loop
      vertex   -2.540000e+001 -5.080000e+000 0.000000e+000
      vertex   0.000000e+000 -5.080000e+000 0.000000e+000
      vertex   -2.540000e+001 -5.080000e+000 1.524000e+001
    endloop
  endfacet
  facet normal 0.000000e+000 -1.000000e+000 0.000000e+000
    outer loop
      vertex   -2.540000e+001 -5.080000e+000 1.524000e+001
      vertex   0.000000e+000 -5.080000e+000 0.000000e+000
      vertex   0.000000e+000 -5.080000e+000 1.524000e+001
    endloop
  endfacet
  facet normal 1.000000e+000 0.000000e+000 0.000000e+000
    outer loop
      vertex   0.000000e+000 -1.270000e+000 1.524000e+001
      vertex   0.000000e+000 -5.080000e+000 1.524000e+001
      vertex   0.000000e+000 0.000000e+000 1.397000e+001
    endloop
  endfacet
  facet normal 1.000000e+000 0.000000e+000 0.000000e+000
    outer loop
      vertex   0.000000e+000 0.000000e+000 1.397000e+001
      vertex   0.000000e+000 -5.080000e+000 1.524000e+001
      vertex   0.000000e+000 0.000000e+000 1.066800e+001
    endloop
  endfacet
  facet normal 1.000000e+000 0.000000e+000 0.000000e+000
    outer loop
      vertex   0.000000e+000 0.000000e+000 1.066800e+001
      vertex   0.000000e+000 -5.080000e+000 1.524000e+001
      vertex   0.000000e+000 -5.080000e+000 0.000000e+000
    endloop
  endfacet
  facet normal 1.000000e+000 0.000000e+000 0.000000e+000
    outer loop
      vertex   0.000000e+000 1.778000e+001 0.000000e+000
      vertex   0.000000e+000 0.000000e+000 1.066800e+001
      vertex   0.000000e+000 -5.080000e+000 0.000000e+000
    endloop
  endfacet
  facet normal 1.000000e+000 0.000000e+000 0.000000e+000
    outer loop
      vertex   0.000000e+000 1.778000e+001 0.000000e+000
      vertex   0.000000e+000 1.270000e+001 1.066800e+001
      vertex   0.000000e+000 0.000000e+000 1.066800e+001
    endloop
  endfacet
  facet normal 1.000000e+000 0.000000e+000 -0.000000e+000
    outer loop
      vertex   0.000000e+000 1.778000e+001 0.000000e+000
      vertex   0.000000e+000 1.778000e+001 1.524000e+001
      vertex   0.000000e+000 1.270000e+001 1.066800e+001
    endloop
  endfacet
  facet normal 1.000000e+000 0.000000e+000 -0.000000e+000
    outer loop
      vertex   0.000000e+000 1.270000e+001 1.066800e+001
      vertex   0.000000e+000 1.778000e+001 1.524000e+001
      vertex   0.000000e+000 1.270000e+001 1.397000e+001
    endloop
  endfacet
  facet normal 1.000000e+000 0.000000e+000 -0.000000e+000
    outer loop
      vertex   0.000000e+000 1.270000e+001 1.397000e+001
      vertex   0.000000e+000 1.778000e+001 1.524000e+001
      vertex   0.000000e+000 1.397000e+001 1.524000e+001
    endloop
  endfacet
  facet normal 0.000000e+000 -0.000000e+000 1.000000e+000
    outer loop
      vertex   -2.540000e+001 0.000000e+000 1.066800e+001
      vertex   0.000000e+000 0.000000e+000 1.066800e+001
      vertex   -2.540000e+001 1.270000e+001 1.066800e+001
    endloop
  endfacet
  facet normal -0.000000e+000 0.000000e+000 1.000000e+000
    outer loop
      vertex   -2.540000e+001 1.270000e+001 1.066800e+001
      vertex   0.000000e+000 0.000000e+000 1.066800e+001
      vertex   0.000000e+000 1.270000e+001 1.066800e+001
    endloop
  endfacet
  facet normal 0.000000e+000 -0.000000e+000 -1.000000e+000
    outer loop
      vertex   -2.540000e+001 1.778000e+001 0.000000e+000
      vertex   0.000000e+000 1.778000e+001 0.000000e+000
      vertex   -2.540000e+001 -5.080000e+000 0.000000e+000
    endloop
  endfacet
  facet normal 0.000000e+000 0.000000e+000 -1.000000e+000
    outer loop
      vertex   -2.540000e+001 -5.080000e+000 0.000000e+000
      vertex   0.000000e+000 1.778000e+001 0.000000e+000
      vertex   0.000000e+000 -5.080000e+000 0.000000e+000
    endloop
  endfacet
endsolid
